<?xml version="1.0" encoding="UTF-8" standalone="no"?>
<!DOCTYPE svg PUBLIC "-//W3C//DTD SVG 1.1//EN" "http://www.w3.org/Graphics/SVG/1.1/DTD/svg11.dtd">
<svg width="100%" height="100%" viewBox="0 0 1024 1024" version="1.1" xmlns="http://www.w3.org/2000/svg" xmlns:xlink="http://www.w3.org/1999/xlink" xml:space="preserve" xmlns:serif="http://www.serif.com/" style="fill-rule:evenodd;clip-rule:evenodd;stroke-linejoin:round;stroke-miterlimit:2;">
    <g transform="matrix(1,0,0,1,543.8125,132.1875)">
        <path d="M0,0C13.426,11.555 21.123,24.403 22.586,42.195C22.858,46.066 23.043,49.935 23.188,53.812C24.135,54.09 24.135,54.09 25.102,54.372C57.723,64.041 86.626,78.743 113.41,99.648C115.097,100.963 116.808,102.248 118.559,103.477C119.365,104.138 119.365,104.138 120.188,104.812C120.188,105.472 124.804,109.273 126.21,110.276C132.442,114.721 142.507,127.812 143.188,127.812C144.98,129.88 146.656,131.952 148.312,134.125C149.057,135.093 149.057,135.093 149.817,136.08C150.821,137.389 151.821,138.7 152.818,140.014C153.944,141.492 155.087,142.957 156.234,144.418C172.414,165.61 183.023,189.631 191.188,214.812C191.409,215.489 191.631,216.166 191.859,216.863C203.902,254.141 205.823,296.477 207.798,335.403C208.622,351.326 210.208,367.102 212.062,382.938C212.186,384.004 212.309,385.07 212.436,386.169C218.364,437.123 229.591,480.06 261.569,520.746C299.333,568.968 299.333,568.968 298.188,598.812C296.699,599.961 296.699,599.961 294.188,600.812C291.347,600.154 288.748,599.379 286,598.438C248.667,586.55 209.698,580.499 170.955,575.319C167.66,574.876 164.369,574.414 161.078,573.945C142.81,571.415 124.405,570.266 106.016,569.006C103.117,568.808 100.218,568.607 97.319,568.405C64.879,566.145 64.879,566.145 32.389,564.867C29.879,564.805 27.369,564.735 24.858,564.664C-27.71,563.211 -80.306,563.808 -132.812,566.812C-134.81,566.925 -136.808,567.037 -138.806,567.149C-162.354,568.482 -185.864,569.999 -209.325,572.451C-212.714,572.802 -216.104,573.131 -219.496,573.457C-236.199,575.121 -252.675,577.815 -269.203,580.688C-273.929,581.505 -278.661,582.257 -283.406,582.961C-301.361,585.669 -318.729,589.85 -336.262,594.508C-337.017,594.708 -337.772,594.909 -338.55,595.115C-341.786,595.981 -345.008,596.87 -348.221,597.819C-349.668,598.245 -349.668,598.245 -351.145,598.68C-351.942,598.926 -352.74,599.172 -353.562,599.425C-356.227,599.884 -358.213,599.485 -360.812,598.812C-362.199,576.522 -351.487,555.553 -338.094,538.468C-336.714,536.685 -335.368,534.88 -334.027,533.066C-329.419,526.839 -324.762,520.7 -319.794,514.752C-313.223,506.87 -307.721,498.821 -302.812,489.812C-302.211,488.731 -301.609,487.649 -300.988,486.535C-292.361,470.231 -287.005,452.711 -283.39,434.684C-282.974,432.615 -282.541,430.549 -282.098,428.486C-279.954,418.293 -278.559,408.085 -277.312,397.75C-277.205,396.874 -277.098,395.998 -276.988,395.096C-276.244,389.004 -275.52,382.909 -274.812,376.812C-274.732,376.116 -274.651,375.42 -274.568,374.703C-272.657,358.101 -271.41,341.483 -270.312,324.812C-266.908,273.194 -262.605,220.24 -237.812,173.812C-237.36,172.964 -236.908,172.116 -236.441,171.242C-235.26,169.081 -234.042,166.947 -232.812,164.812C-232.222,163.754 -231.632,162.696 -231.023,161.605C-230.397,160.498 -229.77,159.391 -229.125,158.25C-228.253,156.701 -228.253,156.701 -227.363,155.121C-226.852,154.359 -226.34,153.597 -225.812,152.812L-223.812,152.812C-223.424,151.73 -223.424,151.73 -223.027,150.625C-206.619,112.639 -158.128,81.875 -121.75,66.062C-110.073,61.444 -98.069,57.552 -85.812,54.812C-85.847,53.797 -85.882,52.781 -85.918,51.734C-86.321,35.142 -82.523,20.319 -71.562,7.375C-53.544,-11.223 -21.465,-15.654 0,0ZM-66.812,86.812C-67.754,86.995 -68.695,87.177 -69.664,87.365C-86.421,90.638 -101.399,95.356 -116.812,102.812C-118.036,103.377 -118.036,103.377 -119.285,103.953C-124.793,106.565 -129.954,109.66 -135.125,112.875C-135.807,113.299 -136.49,113.723 -137.193,114.159C-140.927,116.515 -144.39,119.013 -147.812,121.812C-148.803,122.308 -148.803,122.308 -149.812,122.812L-149.812,124.812C-150.824,125.103 -150.824,125.103 -151.855,125.398C-155.985,127.373 -158.852,130.279 -162.125,133.438C-163.125,134.388 -163.125,134.388 -164.145,135.358C-166.042,137.168 -167.929,138.988 -169.812,140.812C-170.641,141.612 -171.47,142.411 -172.324,143.234C-176.728,147.561 -180.858,152.072 -184.812,156.812C-185.636,157.786 -186.46,158.759 -187.309,159.762C-202.564,178.196 -214.248,200.814 -220.812,223.812C-221.013,224.486 -221.213,225.16 -221.42,225.854C-224.732,237.149 -226.715,248.625 -228.438,260.25C-228.632,261.55 -228.826,262.85 -229.025,264.189C-232.581,288.83 -234.453,313.691 -236.375,338.5C-236.789,343.838 -237.207,349.175 -237.629,354.512C-237.728,355.772 -237.828,357.033 -237.931,358.332C-238.6,366.628 -239.42,374.888 -240.448,383.147C-241.034,389.038 -240.984,394.897 -240.812,400.812C-237.008,401.242 -237.008,401.242 -235.371,399.598C-234.71,398.745 -145.95,288.783 -142.812,285.812C-138.168,287.516 -134.331,289.96 -130.215,292.668C-127.935,293.993 -127.935,293.993 -125.691,293.68C-118.888,290.54 -48.169,177.368 -31.812,176.812C-21.027,176.447 64.424,286.944 67.688,291C69.59,293.697 74.387,285.768 77.555,285.945C82.03,288.376 97.032,306.302 103.367,314.703C104.299,315.933 104.299,315.933 105.25,317.188C105.777,317.896 106.304,318.605 106.848,319.336C107.29,319.823 107.732,320.31 108.188,320.812L110.188,320.812C110.45,321.386 110.713,321.96 110.984,322.551C112.265,324.959 113.715,326.885 115.438,329C116.148,329.875 116.858,330.751 117.59,331.652C119.535,334.024 121.488,336.389 123.441,338.754C124.628,340.19 125.814,341.626 127,343.062C127.607,343.798 128.215,344.533 128.841,345.29C132.518,349.751 136.136,354.251 139.688,358.812C147.034,368.239 154.626,377.478 162.383,386.57C162.879,387.152 163.375,387.734 163.887,388.334C165.215,389.886 166.549,391.433 167.883,392.98C170.205,395.834 172.2,398.721 174.188,401.812C175.507,401.152 176.827,400.493 178.188,399.812C177.573,388.716 176.673,377.666 175.632,366.602C174.394,353.452 173.204,340.301 172.176,327.133C172.053,325.563 172.053,325.563 171.928,323.961C171.846,322.916 171.765,321.872 171.681,320.796C170.085,300.372 168.265,280.075 165.188,259.812C165.028,258.75 164.868,257.687 164.704,256.592C160.402,228.548 152.011,201.644 136.188,177.812C135.041,175.979 133.896,174.146 132.75,172.312C125.219,160.565 116.056,150.633 106.188,140.812C105.467,140.057 104.746,139.302 104.004,138.523C93.348,127.48 81.208,118.84 68.188,110.812C66.965,110.016 66.965,110.016 65.719,109.203C47.087,97.335 24.726,90.137 3.062,86.688C1.533,86.434 1.533,86.434 -0.027,86.176C-22.214,82.559 -44.733,82.356 -66.812,86.812ZM-32.288,210.972C-34.185,213.262 -52.384,259.032 -55.98,268.602C-56.537,270.081 -57.099,271.559 -57.665,273.035C-59.537,277.836 -59.537,277.836 -60.812,282.812C-60.483,283.473 -60.153,284.132 -59.812,284.812C-55.587,284.269 -52.776,281.701 -49.562,279.125C-48.405,278.214 -47.248,277.304 -46.09,276.395C-45.53,275.952 -44.971,275.509 -44.394,275.053C-41.738,272.969 -39.019,270.971 -36.301,268.969C-34.662,267.745 -34.662,267.745 -32.812,265.812C-31.214,269.876 -32.373,273.632 -33.289,277.727C-33.54,278.881 -33.54,278.881 -33.796,280.059C-34.153,281.689 -34.514,283.318 -34.88,284.946C-35.43,287.405 -35.956,289.868 -36.48,292.332C-38.321,300.758 -40.309,308.359 -44.812,315.812C-45.282,316.621 -45.752,317.43 -46.236,318.264C-47.714,320.776 -49.227,323.265 -50.75,325.75C-54.949,332.682 -59.088,339.61 -62.812,346.812C-63.373,347.894 -63.934,348.976 -64.512,350.09C-68.065,357.064 -71.298,364.114 -74.324,371.332C-76.335,376.034 -78.514,380.647 -80.711,385.266C-81.945,387.656 -81.945,387.656 -81.812,389.812L-85.812,389.812C-86.184,388.616 -86.555,387.42 -86.938,386.188C-89.863,377.439 -93.094,368.137 -98.812,360.812C-100.934,359.86 -100.934,359.86 -102.812,359.812C-114.406,373.59 -114.406,373.59 -125.293,387.926C-126.812,389.812 -126.812,389.812 -129.207,392.168C-131.89,394.891 -134.071,397.719 -136.312,400.812C-139.229,404.839 -142.276,408.324 -145.812,411.812C-146.51,413.13 -147.182,414.462 -147.812,415.812C-149.438,417.562 -149.438,417.562 -150.812,418.812C-148.033,419.739 -146.228,419.959 -143.348,420.023C-126.228,420.533 -112.534,424.281 -96.801,430.926C-71.417,441.965 -71.417,441.965 -44.312,446C-43.292,445.994 -42.271,445.987 -41.219,445.98C-38.862,446.08 -38.862,446.08 -37.812,444.812C-37.583,440.796 -37.583,440.796 -37.812,436.812C-40.747,433.878 -43.995,434.351 -47.938,434.188C-49.069,434.129 -49.069,434.129 -50.223,434.07C-52.086,433.976 -53.949,433.893 -55.812,433.812C-55.307,432.848 -54.802,431.884 -54.281,430.891C-53.625,429.615 -52.968,428.339 -52.312,427.062C-51.979,426.428 -51.645,425.794 -51.301,425.141C-49.541,421.692 -48.812,419.764 -48.812,415.812C-50.133,415.483 -51.453,415.152 -52.812,414.812C-51.329,408.548 -47.571,403.897 -43.812,398.812C-44.122,398.194 -44.431,397.575 -44.75,396.938C-46.812,392.812 -46.812,392.812 -45.75,389.375C-43.021,382.489 -39.171,376.128 -35.438,369.75C-33.651,367.08 -33.651,367.08 -33.812,364.812C-32.062,364.871 -32.062,364.871 -29.812,365.812C-28.294,368.164 -27.04,370.38 -25.812,372.875C-25.464,373.555 -25.116,374.235 -24.758,374.936C-23.762,376.888 -22.784,378.848 -21.812,380.812C-21.36,381.716 -20.908,382.62 -20.441,383.551C-20.089,384.256 -19.738,384.961 -19.375,385.688C-18.119,388.612 -18.119,388.612 -16.812,389.812C-16.772,391.479 -16.77,393.146 -16.812,394.812C-17.473,395.142 -18.133,395.473 -18.812,395.812C-18.258,399.745 -17.131,402.17 -14.812,405.375C-12.781,408.193 -11.436,410.374 -10.812,413.812C-12.463,414.803 -14.113,415.793 -15.812,416.812C-13.739,421.219 -11.028,425.183 -8.371,429.254C-6.812,431.812 -6.812,431.812 -5.812,434.812C-7.089,434.778 -8.365,434.743 -9.68,434.707C-11.349,434.679 -13.018,434.652 -14.688,434.625C-15.529,434.6 -16.371,434.575 -17.238,434.549C-18.044,434.539 -18.85,434.529 -19.68,434.52C-20.423,434.504 -21.167,434.488 -21.933,434.472C-22.863,434.641 -22.863,434.641 -23.812,434.812C-26.2,437.718 -26.2,437.718 -25.5,441.438C-25.171,444.638 -25.171,444.638 -23.812,445.812C-14.442,446.754 -5.857,444.753 3.125,442.312C3.799,442.134 4.473,441.955 5.167,441.772C36.083,434.387 36.083,434.387 60.438,415.879C63.569,407.25 54.764,392.937 51.174,385.18C48.71,379.914 46.191,374.787 43.261,369.759C40.986,365.634 39.057,361.329 37.062,357.062C36.187,355.192 32.141,346.61 30.188,343.812C30.517,342.822 88.264,383.016 98.188,387.812C100.021,388.749 101.855,389.687 103.688,390.625C108.071,392.825 112.508,394.855 116.995,396.833C128.655,401.974 139.923,407.747 151.167,413.74C152.498,414.447 153.839,415.138 155.188,415.812C155.847,415.483 156.507,415.152 157.188,414.812C155.873,412.02 154.406,409.612 152.535,407.16C152.012,406.473 151.488,405.786 150.949,405.077C150.388,404.351 149.828,403.624 149.25,402.875C148.669,402.118 148.088,401.361 147.489,400.581C143.525,395.453 139.433,390.464 135.209,385.55C131.499,381.223 127.97,376.773 124.47,372.275C120.228,366.834 91.757,331.899 90.07,329.879C89.463,329.147 88.856,328.416 88.23,327.662C87.281,326.53 87.281,326.53 86.312,325.375C85.065,323.877 83.817,322.378 82.57,320.879C81.985,320.178 81.4,319.477 80.798,318.754C78.898,316.464 77.034,314.146 75.188,311.812C69.267,312.424 57.47,325.627 54.188,319.812C53.986,319.147 -27.675,211.143 -28.812,209.812C-30.863,209.607 -30.863,209.607 -32.288,210.972ZM-253.812,469.812L-253.812,470.812C-252.884,470.933 -252.884,470.933 -251.936,471.056C-249.082,471.429 -246.228,471.808 -243.375,472.188C-242.401,472.314 -241.427,472.44 -240.424,472.57C-236.133,473.144 -231.917,473.74 -227.715,474.789C-214.613,477.82 -200.86,478.133 -187.474,478.646C-171.298,479.276 -155.148,480.169 -139,481.312C-138.13,481.372 -137.26,481.432 -136.363,481.494C-108.484,483.424 -108.484,483.424 -100.812,486.812C-101.142,487.473 -101.472,488.132 -101.812,488.812C-104.624,489.258 -107.359,489.572 -110.191,489.812C-111.058,489.893 -111.925,489.974 -112.818,490.057C-115.669,490.318 -118.522,490.566 -121.375,490.812C-123.339,490.989 -125.303,491.166 -127.267,491.343C-140.309,492.503 -153.354,493.41 -166.425,494.164C-181.77,494.201 -181.77,494.201 -195.812,498.812C-185.145,500.998 -174.607,502.514 -163.75,503.375C-162.244,503.501 -160.738,503.626 -159.232,503.752C-146.948,504.751 -134.651,505.363 -122.341,505.926C-107.74,506.6 -93.311,507.913 -78.812,509.812C-79.321,511.71 -79.321,511.71 -80.812,513.812C-83.509,514.576 -85.918,515.066 -88.672,515.445C-89.454,515.568 -90.236,515.691 -91.042,515.817C-93.546,516.208 -96.054,516.574 -98.562,516.938C-101.056,517.313 -103.549,517.693 -106.041,518.079C-107.591,518.318 -109.143,518.549 -110.695,518.774C-114.919,519.407 -118.785,520.325 -122.812,521.812L-122.812,522.812C-111.05,525.382 -99.578,526.457 -87.562,526.938C-85.811,527.015 -84.061,527.094 -82.31,527.173C-78.932,527.326 -75.554,527.473 -72.176,527.617C-68.026,527.798 -63.882,528.04 -59.736,528.305C-35.933,529.757 -11.989,528.918 11.812,527.938C12.804,527.898 13.795,527.859 14.817,527.819C37.214,526.936 37.214,526.936 59.188,522.812C58.858,522.153 58.528,521.492 58.188,520.812C55.244,520.059 52.357,519.434 49.375,518.875C48.49,518.701 47.605,518.527 46.694,518.348C41.97,517.441 37.249,516.658 32.48,516.027C31.572,515.905 30.664,515.784 29.728,515.658C27.975,515.431 26.219,515.22 24.462,515.028C22.055,514.719 22.055,514.719 18.188,513.812C16.946,511.756 16.946,511.756 16.188,509.812C31.561,508.063 46.942,506.785 62.383,505.828C63.056,505.786 63.729,505.744 64.423,505.701C70.621,505.315 76.819,504.932 83.019,504.578C101.763,503.551 101.763,503.551 120.391,501.312C121.538,501.135 121.538,501.135 122.709,500.953C126.145,500.363 128.243,499.776 131.188,497.812C120.194,495.712 109.299,494.512 98.125,493.875C85.812,493.159 73.525,492.247 61.241,491.133C59.334,490.961 57.426,490.795 55.518,490.634C52.837,490.406 50.159,490.161 47.48,489.91C46.67,489.844 45.86,489.779 45.026,489.711C42.778,489.489 42.778,489.489 39.188,488.812C38.528,487.822 37.867,486.832 37.188,485.812C47.27,483.841 57.334,483.067 67.562,482.375C69.376,482.248 71.189,482.12 73.003,481.992C83.724,481.25 94.448,480.621 105.18,480.059C106.364,479.996 107.548,479.933 108.769,479.869C114.572,479.562 120.376,479.267 126.181,478.99C136.651,478.468 147.029,477.741 157.422,476.344C158.322,476.223 159.222,476.103 160.149,475.979C164.708,475.321 168.831,474.357 173.188,472.812C176.808,472.461 180.409,472.311 184.043,472.156C187.346,472.04 187.346,472.04 190.188,469.812C148.89,458.447 95.734,466.659 52.876,466.677C47.29,466.68 41.704,466.68 36.119,466.679C35.31,466.679 34.502,466.678 33.669,466.678C32.024,466.678 30.38,466.678 28.735,466.677C13.48,466.674 -1.775,466.678 -17.031,466.683C-30.008,466.688 -42.985,466.687 -55.961,466.682C-71.188,466.677 -86.415,466.675 -101.641,466.678C-103.276,466.678 -104.911,466.678 -106.546,466.679C-107.752,466.679 -107.752,466.679 -108.982,466.679C-114.538,466.68 -120.094,466.679 -125.651,466.676C-190.273,463.428 -190.273,463.428 -253.812,469.812Z" style="fill:rgb(3,3,3);fill-rule:nonzero;"/>
    </g>
    <g transform="matrix(1,0,0,1,546,706)">
        <path d="M0,0C31.38,0.862 62.631,1.816 93.938,4C95.742,4.125 95.742,4.125 97.583,4.253C118.543,5.724 139.499,7.345 160.375,9.75C161.092,9.832 161.809,9.915 162.548,10C206.569,15.097 251.045,21.231 293,36L293,41C289.857,42.219 286.711,43.432 283.562,44.637C281.455,45.443 279.35,46.256 277.25,47.082C269.346,50.106 261.236,52.121 253,54C252.169,54.192 251.339,54.384 250.483,54.582C232.837,58.612 215.023,61.301 197.099,63.716C195.129,63.983 193.159,64.255 191.189,64.527C171.186,67.252 151.089,68.917 130.971,70.52C128.922,70.684 126.873,70.85 124.824,71.017C107.307,72.43 89.855,73.327 72.294,73.792C63.786,74.02 55.296,74.452 46.8,74.931C34.911,75.594 23.036,76.187 11.125,76.188C9.736,76.189 9.736,76.189 8.318,76.19C2.274,76.137 2.274,76.137 0,75L0,0Z" style="fill:rgb(3,3,3);fill-rule:nonzero;"/>
    </g>
    <g transform="matrix(1,0,0,1,478,706)">
        <path d="M0,0C1.985,4.136 2.222,7.414 2.151,11.978C2.139,13 2.139,13 2.127,14.044C2.099,16.285 2.056,18.525 2.012,20.766C1.988,22.325 1.965,23.885 1.943,25.445C1.895,28.707 1.839,31.968 1.779,35.229C1.701,39.418 1.637,43.607 1.577,47.796C1.53,51.013 1.479,54.23 1.425,57.447C1.399,58.992 1.375,60.538 1.352,62.083C1.319,64.236 1.279,66.388 1.237,68.54C1.205,70.379 1.205,70.379 1.172,72.256C1,75 1,75 0,76C-2.204,76.09 -4.411,76.107 -6.616,76.095C-7.29,76.091 -7.964,76.087 -8.659,76.083C-15.824,76.026 -22.981,75.773 -30.141,75.484C-31.572,75.428 -33.003,75.372 -34.434,75.316C-39.039,75.134 -43.645,74.943 -48.25,74.75C-49.041,74.717 -49.832,74.684 -50.647,74.65C-242.703,66.628 -242.703,66.628 -293,40L-293,36C-221.391,13.475 -146.596,7.157 -72,2.812C-71.269,2.77 -70.538,2.727 -69.784,2.683C-22.176,-0.103 -22.176,-0.103 0,0Z" style="fill:rgb(2,3,2);fill-rule:nonzero;"/>
    </g>
    <g transform="matrix(1,0,0,1,492,706)">
        <path d="M0,0C5.821,-0.025 11.641,-0.043 17.462,-0.055C19.444,-0.06 21.426,-0.067 23.407,-0.075C26.25,-0.088 29.092,-0.093 31.934,-0.098C32.825,-0.103 33.717,-0.108 34.636,-0.113C36.757,-0.113 38.879,-0.062 41,0C42.856,1.856 42.12,4.494 42.124,6.963C42.119,8.248 42.119,8.248 42.114,9.559C42.114,10.456 42.114,11.354 42.114,12.278C42.113,15.26 42.105,18.241 42.098,21.223C42.096,23.284 42.094,25.345 42.093,27.406C42.09,32.843 42.08,38.28 42.069,43.716C42.058,49.259 42.054,54.803 42.049,60.346C42.038,71.23 42.021,82.115 42,93C42.603,93.328 43.205,93.657 43.826,93.995C44.625,94.434 45.423,94.872 46.246,95.324C47.034,95.756 47.822,96.187 48.635,96.632C52.354,98.783 55.699,101.256 59,104C59.67,104.55 60.341,105.101 61.031,105.668C70.042,113.795 76.254,127.04 77.16,139.131C78.038,156.703 74.941,171.685 63.434,185.477C52.613,196.697 39.707,203.76 24,205C23.002,205.081 23.002,205.081 21.984,205.164C6.38,205.8 -7.762,199.59 -19.395,189.535C-31.356,177.896 -36.994,164.206 -37.312,147.562C-37.345,131.875 -31.97,117.57 -21.207,106.066C-16.498,101.658 -11.321,97.998 -5.393,95.448C-3.224,94.198 -2.204,93.57 -1.351,91.189C-1.102,88.843 -1.08,86.583 -1.129,84.224C-1.12,83.339 -1.111,82.454 -1.102,81.542C-1.079,78.619 -1.106,75.697 -1.133,72.773C-1.126,70.744 -1.116,68.714 -1.103,66.684C-1.076,61.342 -1.09,56 -1.114,50.658C-1.136,44.159 -1.112,37.66 -1.092,31.161C-1.077,26.107 -1.07,21.053 -1.086,15.998C-1.088,15.071 -1.089,14.144 -1.09,13.188C-1.093,11.452 -1.099,9.716 -1.11,7.979C-1.113,2.225 -1.113,2.225 0,0Z" style="fill:rgb(2,2,2);fill-rule:nonzero;"/>
    </g>
</svg>
